<svg width="174" height="174" viewBox="0 0 174 174" fill="none" xmlns="http://www.w3.org/2000/svg">
    <circle cx="87.0005" cy="87.0005" r="41.8052" fill="white"/>
    <circle cx="87" cy="87" r="86.5649" stroke="white" stroke-width="0.87013"/>
    <g clip-path="url(#clip0_594_111)">
    <path d="M44.2672 46.1433L35.2734 36.1213L38.9229 32.8447C39.6008 32.2459 40.3014 31.8278 41.0358 31.6132C41.7702 31.3985 42.4933 31.3985 43.2051 31.6132C43.9169 31.8278 44.561 32.2572 45.1485 32.9125C45.7247 33.5565 46.0863 34.2458 46.2106 34.9689C46.3349 35.692 46.2558 36.4151 45.9733 37.1269C45.6908 37.8387 45.205 38.4941 44.5384 39.0929L42.482 40.9459L45.8603 44.7083L44.2785 46.132L44.2672 46.1433ZM41.194 39.5335L43.2955 37.6467C43.6571 37.319 43.9056 36.9687 44.0412 36.5846C44.1768 36.2004 44.2107 35.8163 44.1316 35.4208C44.0525 35.0254 43.8605 34.6525 43.5441 34.3022C43.2277 33.952 42.8775 33.7147 42.5046 33.6017C42.1317 33.4887 41.7363 33.4774 41.3408 33.5791C40.9454 33.6808 40.5725 33.8955 40.211 34.2119L38.1094 36.0987L41.194 39.5335Z" fill="white"/>
    <path d="M53.4308 38.4146L46.4482 26.9012L48.2673 25.7939L54.2669 35.6916L59.2497 32.6749L60.2327 34.3019L53.4308 38.4259V38.4146Z" fill="white"/>
    <path d="M60.9898 33.7601L60.8203 19.4898L63.2947 18.5859L72.3563 29.6135L70.2208 30.3931L68.221 27.9074L63.0801 29.783L63.1252 32.9805L60.9898 33.7601ZM63.001 27.7831L66.9555 26.3368L62.3004 20.5293L62.8654 20.3259L63.001 27.7831Z" fill="white"/>
    <path d="M76.4236 29.0487L75.4632 23.0491L69.7461 16.4733L72.1188 16.0891L76.7061 21.4108L75.87 21.5464L78.5478 15.0609L80.9205 14.6768L77.5535 22.6988L78.5139 28.6984L76.4236 29.0374V29.0487Z" fill="white"/>
    <path d="M88.7734 28.1667L89.4514 14.71L91.5868 14.8229L90.9089 28.2684L88.7734 28.1554V28.1667Z" fill="white"/>
    <path d="M94.1177 28.3476L96.965 15.1846L98.6485 15.5461L103.835 27.342L103.01 27.2968L105.236 16.9811L107.303 17.433L104.456 30.596L102.773 30.2344L97.6542 18.3821L98.4451 18.4047L96.1967 28.8108L94.1064 28.3589L94.1177 28.3476Z" fill="white"/>
    <path d="M109.518 32.6755L114.184 22.0886L110.907 20.6423L111.676 18.9023L120.116 22.6196L119.347 24.3596L116.116 22.936L111.45 33.5229L109.518 32.6755Z" fill="white"/>
    <path d="M116.342 35.8844L123.969 24.7891L128.003 27.5685C128.748 28.077 129.313 28.6645 129.686 29.3311C130.059 29.9978 130.24 30.6983 130.206 31.444C130.172 32.1897 129.901 32.9241 129.404 33.6472C128.884 34.4156 128.24 34.9353 127.483 35.2178C126.726 35.5002 125.935 35.5454 125.121 35.3533L124.613 41.5789L122.613 40.2118L123.212 33.5004L123.901 34.9579L120.964 32.9354L118.094 37.1046L116.331 35.8957L116.342 35.8844ZM122.048 31.3649L124.353 32.9467C124.76 33.2292 125.167 33.3874 125.573 33.4326C125.98 33.4778 126.364 33.4213 126.726 33.2405C127.087 33.071 127.392 32.7885 127.664 32.4044C127.935 32.0202 128.082 31.6248 128.104 31.2293C128.138 30.8339 128.059 30.461 127.867 30.0995C127.675 29.7379 127.37 29.4215 126.963 29.1391L124.658 27.5572L122.048 31.3536V31.3649Z" fill="white"/>
    <path d="M130.409 47.8272C129.754 47.1041 129.279 46.3132 128.985 45.4545C128.692 44.5958 128.556 43.7258 128.601 42.8332C128.646 41.9406 128.861 41.0819 129.257 40.2571C129.652 39.4323 130.217 38.6866 130.963 38.0087C131.708 37.3307 132.511 36.8562 133.381 36.5511C134.251 36.2461 135.121 36.1218 136.002 36.1783C136.883 36.2348 137.731 36.4607 138.555 36.8562C139.38 37.2517 140.115 37.8166 140.759 38.5397C141.414 39.2741 141.9 40.065 142.205 40.9237C142.51 41.7711 142.634 42.6524 142.589 43.5337C142.544 44.415 142.329 45.285 141.934 46.0985C141.538 46.9233 140.973 47.6691 140.228 48.3357C139.482 49.0023 138.68 49.4881 137.81 49.7819C136.94 50.0757 136.07 50.2113 135.188 50.1548C134.307 50.0983 133.448 49.8836 132.624 49.4881C131.799 49.0927 131.064 48.5278 130.409 47.8046V47.8272ZM131.867 46.5279C132.33 47.0476 132.861 47.4431 133.437 47.703C134.013 47.9741 134.612 48.1097 135.245 48.1323C135.866 48.1549 136.488 48.0532 137.109 47.8272C137.719 47.6013 138.296 47.251 138.827 46.7765C139.358 46.3019 139.764 45.7709 140.047 45.1946C140.329 44.6184 140.499 44.0083 140.555 43.3756C140.601 42.7428 140.533 42.1327 140.329 41.5226C140.126 40.9124 139.798 40.3588 139.324 39.8391C138.861 39.3193 138.329 38.9239 137.753 38.664C137.177 38.3928 136.567 38.2572 135.945 38.2346C135.313 38.212 134.691 38.325 134.092 38.551C133.494 38.777 132.917 39.1272 132.386 39.6018C131.855 40.0763 131.449 40.6074 131.143 41.1836C130.85 41.7598 130.68 42.37 130.624 42.9914C130.579 43.6128 130.658 44.2343 130.861 44.8444C131.064 45.4545 131.403 46.0082 131.855 46.5279H131.867Z" fill="white"/>
    <path d="M139.844 61.5208L150.126 51.6006L151.075 53.6908L142.228 62.0067L142.036 61.5999L154.114 60.3797L155.063 62.4699L140.827 63.7015L139.844 61.5321V61.5208Z" fill="white"/>
    <path d="M143.143 70.0848L156.113 66.4805L156.69 68.5368L143.719 72.1411L143.143 70.0848Z" fill="white"/>
    <path d="M144.646 75.1919L158.034 73.7344L158.509 78.1183C158.656 79.508 158.509 80.7509 158.068 81.8355C157.628 82.9202 156.927 83.8015 155.978 84.4681C155.029 85.1461 153.899 85.5528 152.566 85.6884C151.244 85.8353 150.046 85.6771 148.984 85.2252C147.911 84.7732 147.041 84.0614 146.363 83.101C145.685 82.1406 145.278 80.9655 145.12 79.5758L144.646 75.1919ZM146.77 77.1127L147.018 79.4176C147.12 80.3667 147.414 81.1689 147.877 81.8242C148.351 82.4796 148.962 82.9654 149.73 83.2705C150.487 83.5755 151.368 83.6772 152.34 83.5642C153.323 83.4626 154.148 83.1688 154.814 82.7055C155.481 82.2423 155.978 81.6322 156.306 80.8978C156.622 80.1633 156.735 79.3159 156.633 78.3668L156.385 76.0619L146.77 77.1127Z" fill="white"/>
    <path d="M145.673 88.7852L159.074 90.1297L158.192 98.9653L156.305 98.7732L156.972 92.0618L153.119 91.6776L152.486 98.0275L150.6 97.8354L151.232 91.4855L147.346 91.1014L146.679 97.8128L144.792 97.6207L145.673 88.7852Z" fill="white"/>
    <path d="M142.182 105.947C142.498 105.02 142.961 104.218 143.56 103.54C144.159 102.862 144.86 102.32 145.662 101.936C146.464 101.54 147.311 101.314 148.227 101.246C149.142 101.179 150.068 101.314 151.017 101.642C151.966 101.97 152.78 102.433 153.469 103.054C154.158 103.664 154.689 104.365 155.074 105.167C155.458 105.958 155.672 106.817 155.729 107.721C155.774 108.625 155.65 109.551 155.334 110.466C155.006 111.404 154.554 112.206 153.955 112.884C153.356 113.562 152.656 114.104 151.865 114.5C151.063 114.895 150.215 115.121 149.3 115.178C148.385 115.234 147.458 115.099 146.509 114.771C145.56 114.443 144.747 113.98 144.069 113.37C143.391 112.76 142.848 112.059 142.464 111.257C142.08 110.455 141.854 109.608 141.798 108.692C141.741 107.777 141.877 106.862 142.193 105.935L142.182 105.947ZM144.023 106.579C143.798 107.235 143.707 107.89 143.752 108.523C143.798 109.156 143.967 109.754 144.261 110.308C144.543 110.862 144.939 111.359 145.436 111.788C145.933 112.218 146.521 112.545 147.187 112.771C147.865 112.997 148.52 113.099 149.164 113.065C149.808 113.031 150.419 112.884 150.995 112.624C151.571 112.364 152.068 111.992 152.498 111.528C152.927 111.065 153.255 110.489 153.481 109.834C153.706 109.178 153.797 108.523 153.752 107.89C153.706 107.257 153.537 106.659 153.243 106.094C152.949 105.529 152.554 105.043 152.068 104.625C151.571 104.207 150.995 103.879 150.317 103.653C149.639 103.427 148.984 103.314 148.328 103.348C147.673 103.371 147.063 103.518 146.498 103.777C145.933 104.037 145.425 104.41 144.995 104.885C144.566 105.359 144.238 105.924 144.012 106.568L144.023 106.579Z" fill="white"/>
    <path d="M141.38 121.257L142.849 122.308L138.657 128.194L137.188 127.143L141.38 121.257Z" fill="white"/>
    <path d="M128.058 128.963L136.736 139.256L132.985 142.408C132.295 142.996 131.572 143.38 130.838 143.572C130.103 143.764 129.369 143.742 128.668 143.504C127.968 143.267 127.335 142.815 126.759 142.137C126.194 141.471 125.866 140.77 125.765 140.047C125.663 139.313 125.765 138.601 126.07 137.9C126.375 137.2 126.872 136.556 127.572 135.98L129.685 134.194L126.42 130.319L128.047 128.94L128.058 128.963ZM130.917 135.663L128.759 137.482C128.386 137.787 128.126 138.138 127.979 138.522C127.832 138.906 127.787 139.29 127.844 139.685C127.911 140.081 128.092 140.454 128.397 140.815C128.702 141.177 129.041 141.414 129.414 141.55C129.787 141.685 130.182 141.697 130.578 141.606C130.973 141.516 131.358 141.313 131.73 141.007L133.888 139.188L130.917 135.663Z" fill="white"/>
    <path d="M118.647 136.408L125.257 148.136L123.404 149.187L117.72 139.109L112.647 141.967L111.721 140.318L118.647 136.408Z" fill="white"/>
    <path d="M110.941 140.826L110.647 155.096L108.139 155.921L99.4277 144.611L101.597 143.899L103.518 146.442L108.715 144.736L108.772 141.538L110.941 140.826ZM108.738 146.724L104.738 148.046L109.212 154L108.647 154.193L108.749 146.735L108.738 146.724Z" fill="white"/>
    <path d="M95.3828 145.03L96.1512 151.052L101.665 157.797L99.2809 158.102L94.8631 152.634L95.7105 152.521L92.8293 158.927L90.4453 159.232L94.0609 151.312L93.2926 145.29L95.3941 145.019L95.3828 145.03Z" fill="white"/>
    <path d="M82.9883 145.539L81.881 158.961L79.7568 158.792L80.8641 145.369L82.9883 145.55V145.539Z" fill="white"/>
    <path d="M77.6548 145.177L74.3895 158.238L72.7286 157.82L67.9267 145.866L68.7515 145.945L66.198 156.193L64.1416 155.684L67.4069 142.623L69.0791 143.041L73.8133 155.052L73.0224 155.006L75.5985 144.679L77.6661 145.199L77.6548 145.177Z" fill="white"/>
    <path d="M62.4359 140.375L57.4419 150.815L60.6733 152.363L59.8598 154.08L51.5439 150.103L52.3575 148.385L55.5324 149.911L60.5264 139.471L62.4359 140.386V140.375Z" fill="white"/>
    <path d="M55.6905 136.939L47.7136 147.786L43.7704 144.882C43.0473 144.351 42.5049 143.741 42.1434 143.063C41.7818 142.385 41.6349 141.685 41.6914 140.939C41.7479 140.193 42.0417 139.47 42.5614 138.758C43.1151 138.013 43.7704 137.504 44.5387 137.244C45.307 136.985 46.0979 136.962 46.9001 137.188L47.6119 130.974L49.5666 132.409L48.7531 139.097L48.1091 137.617L50.979 139.73L53.9731 135.651L55.6905 136.917V136.939ZM49.8491 141.289L47.5894 139.628C47.1939 139.335 46.7871 139.165 46.3804 139.097C45.9736 139.041 45.5895 139.097 45.2279 139.244C44.8664 139.391 44.5387 139.674 44.2675 140.046C43.9851 140.419 43.8269 140.815 43.7817 141.21C43.7365 141.606 43.8043 141.99 43.9851 142.351C44.1658 142.713 44.4596 143.041 44.8551 143.334L47.1148 144.995L49.8491 141.278V141.289Z" fill="white"/>
    <path d="M42.0074 124.568C42.6401 125.314 43.0921 126.127 43.3633 126.986C43.6344 127.856 43.7361 128.726 43.6683 129.618C43.6005 130.511 43.352 131.358 42.9339 132.172C42.5159 132.985 41.9283 133.72 41.16 134.364C40.3917 135.008 39.5782 135.471 38.6969 135.742C37.8156 136.013 36.9343 136.115 36.0643 136.036C35.183 135.957 34.3469 135.708 33.5334 135.279C32.7199 134.85 32.0081 134.273 31.3866 133.528C30.7539 132.771 30.2907 131.957 30.0195 131.099C29.737 130.24 29.6353 129.359 29.7144 128.477C29.7822 127.585 30.0308 126.737 30.4488 125.935C30.8669 125.122 31.4657 124.398 32.2227 123.754C32.9911 123.11 33.8046 122.647 34.6859 122.387C35.5559 122.116 36.4372 122.014 37.3185 122.093C38.1998 122.173 39.0472 122.421 39.8607 122.839C40.6742 123.257 41.386 123.845 42.0187 124.59L42.0074 124.568ZM40.516 125.822C40.064 125.291 39.5556 124.873 38.9907 124.59C38.4257 124.308 37.8269 124.139 37.1942 124.105C36.5727 124.059 35.9513 124.15 35.3299 124.353C34.7085 124.557 34.1322 124.896 33.5786 125.347C33.0362 125.799 32.6069 126.319 32.3018 126.895C31.9968 127.472 31.8047 128.07 31.7369 128.692C31.6691 129.313 31.7256 129.935 31.9064 130.545C32.0872 131.155 32.4035 131.731 32.8555 132.262C33.3074 132.793 33.8159 133.211 34.3808 133.494C34.9457 133.776 35.5559 133.934 36.1773 133.98C36.81 134.014 37.4314 133.934 38.0416 133.72C38.6517 133.516 39.2279 133.177 39.7816 132.726C40.3239 132.262 40.7533 131.754 41.0696 131.178C41.386 130.601 41.5781 130.014 41.6459 129.381C41.7136 128.76 41.6459 128.138 41.4651 127.528C41.273 126.918 40.9679 126.342 40.5273 125.822H40.516Z" fill="white"/>
    <path d="M33.0141 110.58L22.416 120.161L21.5347 118.037L30.6414 110.015L30.8109 110.433L18.6987 111.269L17.8174 109.145L32.0876 108.365L33.0028 110.568L33.0141 110.58Z" fill="white"/>
    <path d="M29.9859 101.903L16.902 105.1L16.3936 103.032L29.4774 99.835L29.9859 101.903Z" fill="white"/>
    <path d="M28.6413 96.75L15.2071 97.7782L14.8681 93.383C14.7665 91.9932 14.9472 90.7617 15.4331 89.6883C15.9076 88.6149 16.6307 87.7562 17.6024 87.1235C18.5628 86.4795 19.7153 86.1066 21.0485 86.0049C22.3705 85.9032 23.5568 86.0953 24.6189 86.5812C25.681 87.067 26.5284 87.8014 27.1724 88.7844C27.8165 89.7674 28.1893 90.9537 28.3023 92.3548L28.6413 96.75ZM26.5849 94.7727L26.4041 92.4678C26.3363 91.5187 26.0652 90.7052 25.6245 90.0386C25.1726 89.3606 24.5737 88.8635 23.828 88.5358C23.0823 88.2082 22.2123 88.0839 21.2293 88.1517C20.2463 88.2308 19.4102 88.4906 18.721 88.9313C18.0318 89.3719 17.5233 89.9595 17.1844 90.6939C16.8454 91.417 16.7098 92.2644 16.7776 93.2135L16.9584 95.5184L26.6075 94.7727H26.5849Z" fill="white"/>
    <path d="M28.0426 83.1356L14.6875 81.373L15.8513 72.5713L17.7381 72.8199L16.8569 79.5087L20.6984 80.0171L21.5345 73.6899L23.4214 73.9384L22.5853 80.2657L26.4607 80.7741L27.342 74.0853L29.2289 74.3339L28.0652 83.1356H28.0426Z" fill="white"/>
    <path d="M32.0766 66.0968C31.7264 67.012 31.2405 67.7916 30.6191 68.4582C29.9977 69.1136 29.2746 69.6333 28.461 69.9949C27.6475 70.3677 26.7888 70.5598 25.8736 70.5937C24.9584 70.6276 24.032 70.4694 23.0942 70.1079C22.1564 69.7463 21.3542 69.2605 20.6875 68.6277C20.0209 67.995 19.5125 67.2719 19.1509 66.4697C18.7894 65.6675 18.6086 64.8088 18.586 63.8936C18.5634 62.9784 18.7329 62.0745 19.0718 61.1593C19.4221 60.2328 19.9079 59.4419 20.5294 58.7866C21.1508 58.1312 21.8626 57.6115 22.6761 57.2386C23.4896 56.8658 24.3483 56.6737 25.2635 56.6398C26.1787 56.6172 27.1052 56.7754 28.0317 57.1369C28.9695 57.4872 29.7604 57.9844 30.427 58.6171C31.0936 59.2498 31.6021 59.9729 31.9636 60.7751C32.3252 61.5886 32.5173 62.4473 32.5512 63.3625C32.5738 64.2777 32.4156 65.1929 32.0766 66.0968ZM30.2575 65.3963C30.5061 64.741 30.6191 64.0969 30.5852 63.4642C30.5513 62.8315 30.4044 62.2214 30.1446 61.6564C29.8847 61.0915 29.5005 60.5831 29.0147 60.1424C28.5288 59.7018 27.9526 59.3515 27.2973 59.1029C26.6307 58.8544 25.9753 58.7301 25.3313 58.7414C24.6873 58.7414 24.0659 58.877 23.4896 59.1255C22.9021 59.3628 22.3936 59.7131 21.953 60.1763C21.5123 60.6282 21.1621 61.1932 20.9135 61.8372C20.6649 62.4812 20.552 63.1366 20.5859 63.7693C20.6197 64.402 20.7666 65.0121 21.0378 65.5771C21.309 66.142 21.6931 66.6505 22.1677 67.0798C22.6422 67.5092 23.2185 67.8594 23.8851 68.108C24.5517 68.3566 25.207 68.4808 25.8623 68.4808C26.5177 68.4808 27.1278 68.3566 27.704 68.108C28.2803 67.8594 28.7887 67.5092 29.2407 67.0459C29.6926 66.5827 30.0316 66.029 30.2801 65.385L30.2575 65.3963Z" fill="white"/>
    <path d="M31.2176 54.2216L29.7148 53.216L33.7259 47.2051L35.2286 48.2107L31.2176 54.2216Z" fill="white"/>
    </g>
    <path d="M79.7943 75.1184C77.5333 73.8329 75.7002 74.886 75.7002 77.4686V96.5273C75.7002 99.1125 77.5333 100.164 79.7943 98.8799L96.6013 89.3266C98.863 88.0406 98.863 85.9572 96.6013 84.6716L79.7943 75.1184Z" fill="#0F0F0F"/>
    <defs>
    <clipPath id="clip0_594_111">
    <rect width="144.386" height="144.556" fill="white" transform="translate(14.6875 14.6875)"/>
    </clipPath>
    </defs>
    </svg>
    