<svg width="166" height="38" viewBox="0 0 166 38" fill="none" xmlns="http://www.w3.org/2000/svg">
<path d="M56.7975 35.3793L47.2138 11.3214H53.603L61.2605 33.4452H58.1129L65.7705 11.3214H71.9717L62.341 35.3793H56.7975Z" fill="#0F0F0F"/>
<path d="M88.636 35.3793C88.4794 34.7503 88.3541 34.0585 88.2602 33.3037C88.1975 32.549 88.1662 31.637 88.1662 30.5677H87.9783V19.152C87.9783 17.8941 87.6181 16.9506 86.8978 16.3217C86.2088 15.6612 85.1439 15.331 83.7032 15.331C82.2939 15.331 81.1664 15.5983 80.3207 16.133C79.5064 16.6361 79.0053 17.3752 78.8174 18.3501H73.133C73.3835 16.1172 74.4484 14.309 76.3275 12.9252C78.2067 11.5415 80.7279 10.8497 83.8911 10.8497C87.1797 10.8497 89.6695 11.6044 91.3608 13.1139C93.052 14.592 93.8977 16.7777 93.8977 19.6709V30.5677C93.8977 31.3225 93.9446 32.093 94.0386 32.8792C94.1639 33.6654 94.3361 34.4988 94.5554 35.3793H88.636ZM80.3207 35.851C77.9092 35.851 75.983 35.2535 74.5423 34.0585C73.133 32.832 72.4283 31.1967 72.4283 29.1525C72.4283 26.9512 73.2269 25.2058 74.8242 23.9164C76.4215 22.627 78.6765 21.7622 81.5892 21.3219L89.0588 20.1898V23.9636L82.5757 24.9542C81.1664 25.1743 80.1015 25.5674 79.3812 26.1335C78.6921 26.6996 78.3476 27.4858 78.3476 28.4921C78.3476 29.4041 78.6765 30.1117 79.3342 30.6149C79.9919 31.0866 80.9001 31.3225 82.059 31.3225C83.7502 31.3225 85.1596 30.8979 86.2871 30.0488C87.4146 29.1997 87.9783 28.1619 87.9783 26.9354L88.636 30.5677C88.0096 32.2974 86.9761 33.6182 85.5354 34.5302C84.126 35.4108 82.3878 35.851 80.3207 35.851Z" fill="#0F0F0F"/>
<path d="M99.4232 35.3793V11.3214H105.202V16.9821H105.343V35.3793H99.4232ZM116.242 35.3793V20.1898C116.242 18.7117 115.866 17.5953 115.114 16.8405C114.362 16.0858 113.266 15.7084 111.826 15.7084C110.573 15.7084 109.445 15.9914 108.443 16.5575C107.472 17.1236 106.705 17.9098 106.141 18.9161C105.609 19.9225 105.343 21.0861 105.343 22.4069L104.732 16.6519C105.546 14.8908 106.736 13.4913 108.302 12.4535C109.868 11.3843 111.747 10.8497 113.94 10.8497C116.539 10.8497 118.559 11.5887 120 13.0668C121.472 14.5448 122.208 16.5103 122.208 18.9633V35.3793H116.242Z" fill="#0F0F0F"/>
<path d="M137.605 35.851C134.661 35.851 132.485 35.1592 131.075 33.7754C129.697 32.3603 129.008 30.2532 129.008 27.4543V5.84938L134.974 3.63227V27.5959C134.974 28.7594 135.288 29.6243 135.914 30.1903C136.54 30.7564 137.527 31.0394 138.874 31.0394C139.406 31.0394 139.876 31.008 140.283 30.9451C140.722 30.8508 141.129 30.7407 141.505 30.6149V35.2378C141.129 35.4265 140.596 35.568 139.907 35.6623C139.218 35.7881 138.451 35.851 137.605 35.851ZM124.404 15.9914V11.3214H141.505V15.9914H124.404Z" fill="#0F0F0F"/>
<path d="M160.081 35.3793C159.924 34.7503 159.799 34.0585 159.705 33.3037C159.642 32.549 159.611 31.637 159.611 30.5677H159.423V19.152C159.423 17.8941 159.063 16.9506 158.342 16.3217C157.653 15.6612 156.589 15.331 155.148 15.331C153.738 15.331 152.611 15.5983 151.765 16.133C150.951 16.6361 150.45 17.3752 150.262 18.3501H144.578C144.828 16.1172 145.893 14.309 147.772 12.9252C149.651 11.5415 152.173 10.8497 155.336 10.8497C158.624 10.8497 161.114 11.6044 162.805 13.1139C164.497 14.592 165.342 16.7777 165.342 19.6709V30.5677C165.342 31.3225 165.389 32.093 165.483 32.8792C165.609 33.6654 165.781 34.4988 166 35.3793H160.081ZM151.765 35.851C149.354 35.851 147.428 35.2535 145.987 34.0585C144.578 32.832 143.873 31.1967 143.873 29.1525C143.873 26.9512 144.672 25.2058 146.269 23.9164C147.866 22.627 150.121 21.7622 153.034 21.3219L160.503 20.1898V23.9636L154.02 24.9542C152.611 25.1743 151.546 25.5674 150.826 26.1335C150.137 26.6996 149.792 27.4858 149.792 28.4921C149.792 29.4041 150.121 30.1117 150.779 30.6149C151.437 31.0866 152.345 31.3225 153.504 31.3225C155.195 31.3225 156.604 30.8979 157.732 30.0488C158.859 29.1997 159.423 28.1619 159.423 26.9354L160.081 30.5677C159.454 32.2974 158.421 33.6182 156.98 34.5302C155.571 35.4108 153.832 35.851 151.765 35.851Z" fill="#0F0F0F"/>
<path fill-rule="evenodd" clip-rule="evenodd" d="M0.990307 32.1796L20.058 3.17329C20.058 3.17329 23.7485 -3.62256 27.1315 2.67601C27.8992 4.10535 29.23 6.37285 30.8274 9.02192C27.3538 9.38657 24.3634 10.8171 21.8506 13.315C18.9079 16.2469 17.4333 19.8203 17.4333 24.0416C17.4333 28.2206 18.8936 31.7862 21.8149 34.7473C23.218 36.1661 24.7604 37.2435 26.4436 37.9808H4.52716C4.52716 37.9808 -2.54651 38.6439 0.990307 32.1796ZM45.2 31.9911C46.3504 33.482 49.3328 37.9808 43.4314 37.9808H38.3916C40.0725 37.2474 41.6108 36.177 43.0032 34.7689C43.8627 33.8977 44.5946 32.9719 45.2 31.9911ZM32.4021 17.4144C30.6568 17.4144 29.1816 18.0626 27.9562 19.3597C26.7304 20.649 26.1181 22.2122 26.1181 24.0417C26.1181 25.8719 26.7304 27.435 27.9634 28.7245C29.1961 30.0217 30.6705 30.6698 32.4021 30.6698C34.1542 30.6698 35.6366 30.0286 36.8548 28.7396C38.073 27.45 38.6786 25.8864 38.6786 24.0417C38.6786 22.198 38.073 20.6347 36.8548 19.345C35.6366 18.0555 34.1542 17.4144 32.4021 17.4144ZM5.80347 31.2499C7.04359 31.2499 8.04913 32.2573 8.04913 33.4996C8.04913 34.742 7.04359 35.7495 5.80347 35.7495C4.56357 35.7495 3.55802 34.742 3.55802 33.4996C3.55802 32.2573 4.56357 31.2499 5.80347 31.2499Z" fill="#0F0F0F"/>
</svg>
