<svg width="24" height="18" viewBox="0 0 24 18" fill="none" xmlns="http://www.w3.org/2000/svg">
<path d="M15.6093 0.514473L23.152 8.05714C23.402 8.30718 23.5424 8.64625 23.5424 8.99981C23.5424 9.35336 23.402 9.69244 23.152 9.94247L15.6093 17.4851C15.3579 17.728 15.0211 17.8624 14.6715 17.8594C14.3219 17.8563 13.9875 17.7161 13.7402 17.4689C13.493 17.2217 13.3528 16.8873 13.3498 16.5377C13.3467 16.1881 13.4811 15.8513 13.724 15.5998L18.9907 10.3331H1.33333C0.979711 10.3331 0.640573 10.1927 0.390524 9.94262C0.140476 9.69257 0 9.35343 0 8.99981C0 8.64618 0.140476 8.30705 0.390524 8.057C0.640573 7.80695 0.979711 7.66647 1.33333 7.66647H18.9907L13.724 2.39981C13.5967 2.27681 13.4951 2.12968 13.4252 1.96701C13.3553 1.80434 13.3185 1.62938 13.317 1.45234C13.3155 1.2753 13.3492 1.09973 13.4162 0.935867C13.4833 0.772006 13.5823 0.623137 13.7075 0.497947C13.8327 0.372756 13.9815 0.273752 14.1454 0.206711C14.3093 0.13967 14.4848 0.105934 14.6619 0.107472C14.8389 0.109011 15.0139 0.145792 15.1765 0.215671C15.3392 0.28555 15.4863 0.387126 15.6093 0.514473Z" fill="#0F0F0F" fill-opacity="0.5"/>
</svg>
