<svg width="24" height="18" viewBox="0 0 24 18" fill="none" xmlns="http://www.w3.org/2000/svg">
<path d="M8.39067 0.514473L0.848 8.05714C0.598038 8.30718 0.457619 8.64625 0.457619 8.99981C0.457619 9.35336 0.598038 9.69244 0.848 9.94247L8.39067 17.4851C8.64214 17.728 8.97894 17.8624 9.32853 17.8594C9.67813 17.8563 10.0125 17.7161 10.2598 17.4689C10.507 17.2217 10.6472 16.8873 10.6502 16.5377C10.6533 16.1881 10.5189 15.8513 10.276 15.5998L5.00933 10.3331H22.6667C23.0203 10.3331 23.3594 10.1927 23.6095 9.94262C23.8595 9.69257 24 9.35343 24 8.99981C24 8.64618 23.8595 8.30705 23.6095 8.057C23.3594 7.80695 23.0203 7.66647 22.6667 7.66647H5.00933L10.276 2.39981C10.4033 2.27681 10.5049 2.12968 10.5748 1.96701C10.6447 1.80434 10.6815 1.62938 10.683 1.45234C10.6845 1.2753 10.6508 1.09973 10.5838 0.935867C10.5167 0.772006 10.4177 0.623137 10.2925 0.497947C10.1673 0.372756 10.0185 0.273752 9.8546 0.206711C9.69074 0.13967 9.51517 0.105934 9.33813 0.107472C9.16109 0.109011 8.98613 0.145792 8.82346 0.215671C8.66079 0.28555 8.51366 0.387126 8.39067 0.514473Z" fill="#0F0F0F" fill-opacity="0.5"/>
</svg>
