<svg width="398" height="398" viewBox="0 0 398 398" fill="none" xmlns="http://www.w3.org/2000/svg">
<path d="M194.524 5.84277C195.09 0.470869 202.91 0.47092 203.476 5.84277L214.767 113.107C215.486 119.941 224.252 122.29 228.292 116.731L291.703 29.4834C294.879 25.1139 301.65 29.0241 299.454 33.959L255.601 132.498C252.807 138.776 259.224 145.193 265.502 142.399L364.041 98.5459C368.976 96.3497 372.886 103.121 368.517 106.297L281.269 169.708C275.71 173.748 278.059 182.514 284.893 183.233L392.157 194.524C397.529 195.09 397.529 202.91 392.157 203.476L284.893 214.767C278.059 215.486 275.71 224.252 281.269 228.292L368.517 291.703C372.886 294.879 368.976 301.65 364.041 299.454L265.502 255.601C259.224 252.807 252.807 259.224 255.601 265.502L299.454 364.041C301.65 368.976 294.879 372.886 291.703 368.517L228.292 281.269C224.252 275.71 215.486 278.059 214.767 284.893L203.476 392.157C202.91 397.529 195.09 397.529 194.524 392.157L183.233 284.893C182.514 278.059 173.748 275.71 169.708 281.269L106.297 368.517C103.121 372.886 96.3497 368.976 98.5459 364.041L142.399 265.502C145.193 259.224 138.776 252.807 132.498 255.601L33.959 299.454C29.024 301.65 25.114 294.879 29.4834 291.703L116.731 228.292C122.29 224.252 119.941 215.486 113.107 214.767L5.84277 203.476C0.470829 202.91 0.47096 195.09 5.84277 194.524L113.107 183.233C119.941 182.514 122.29 173.748 116.731 169.708L29.4834 106.297C25.1139 103.121 29.0241 96.3497 33.959 98.5459L132.498 142.399C138.776 145.193 145.193 138.776 142.399 132.498L98.5459 33.959C96.3497 29.024 103.121 25.114 106.297 29.4834L169.708 116.731C173.748 122.29 182.514 119.941 183.233 113.107L194.524 5.84277Z" stroke="#0F0F0F" stroke-opacity="0.2" stroke-width="3"/>
</svg>
